<svg xmlns="http://www.w3.org/2000/svg" viewBox="0 0 512 512" width="512" height="512">
  <title>cap</title>
  <g transform="translate(17.2 55.9) scale(0.93279)" fill="currentColor">
    <path d="M0 0 C4.4 2.1 8.9 4.3 13.4 6.4 C14.2 6.8 15.1 7.2 16 7.7 C23.3 11.1 30.6 14.6 37.9 17.9 C48.9 23 59.8 28.1 70.7 33.3 C80.2 37.7 89.7 42.2 99.2 46.6 C112.2 52.6 125.3 58.8 138.3 65 C146.5 68.9 154.8 72.8 163 76.7 C207.7 97.5 207.7 97.5 213.5 107.6 C215.1 113.1 215.3 117.8 213.6 123.3 C207.2 132.4 197.8 137.1 188.1 141.9 C186.8 142.6 185.5 143.2 184.3 143.9 C181.8 145.1 179.4 146.3 176.9 147.6 C174.8 148.6 172.6 149.7 170.5 150.8 C169.6 151.3 168.7 151.7 167.7 152.2 C167 152.6 166.2 153 165.4 153.4 C163.5 154.2 163.5 154.2 161.5 154.2 C161.1 180.8 161.1 180.8 162.9 190.8 C165 202.9 165.9 214.7 165.9 226.9 C165.9 229.4 165.9 231.9 166 234.3 C166 235.9 166 237.5 166 239.1 C166 239.5 166 239.5 166 241.3 C166 246.4 164.7 249.3 161.5 253.2 C158.4 255.8 155.3 257.2 151.2 257.3 C145.8 256.5 143 254.3 139.6 250 C136.3 244.8 137.3 238.3 137.3 232.4 C137.3 231.1 137.3 229.9 137.3 228.6 C137.4 216.4 138.3 204.4 140.1 192.4 C140.7 187.2 140.6 182 140.6 176.7 C140.6 176.2 140.6 176.2 140.6 173.7 C140.6 171.2 140.5 168.7 140.5 166.2 C135.1 167.9 130.2 170.3 125.2 172.9 C124.3 173.3 123.5 173.7 122.6 174.1 C120.6 175.2 118.6 176.2 116.5 177.2 C116.5 178 116.5 178.8 116.5 179.7 C116.4 199.2 116.3 218.7 116.2 238.2 C116.2 247.6 116.1 257.1 116.1 266.5 C116.1 274.7 116 282.9 116 291.2 C116 295.5 115.9 299.9 115.9 304.2 C115.9 308.3 115.9 312.4 115.9 316.5 C115.9 318 115.8 319.5 115.8 321 C115.8 337 113 349.2 101.7 361.2 C69.8 391.2 15.8 396.6 -25.5 398.2 C-26.3 398.3 -27.1 398.3 -27.9 398.4 C-32.8 398.5 -37.6 398.5 -42.5 398.2 C-43.6 398.2 -44.7 398.2 -45.8 398.1 C-88.6 396.1 -149.2 391.8 -180.7 358.4 C-187.8 349.8 -191.9 340.4 -192.2 329.3 C-192.2 328.4 -192.2 327.5 -192.3 326.6 C-192.7 314.1 -192.6 301.7 -192.5 289.2 C-192.5 284.6 -192.5 280 -192.4 275.4 C-192.4 262.3 -192.4 249.2 -192.3 236.1 C-192.3 228.9 -192.2 221.6 -192.2 214.3 C-192.2 209.8 -192.2 205.2 -192.2 200.6 C-192.2 197.8 -192.2 194.9 -192.2 192.1 C-192.1 190.2 -192.1 188.2 -192.1 186.3 C-192.1 185.1 -192.1 184 -192.1 182.8 C-192.1 181.8 -192.1 180.8 -192.1 179.7 C-192.5 176.8 -193.2 176 -195.5 174.2 C-197.2 173.3 -198.9 172.4 -200.6 171.5 C-201.2 171.2 -201.2 171.2 -203.8 169.9 C-204.9 169.4 -206.1 168.8 -207.2 168.2 C-208.4 167.7 -209.6 167.1 -210.8 166.5 C-218.2 162.8 -225.7 159.2 -233.2 155.6 C-236 154.3 -238.8 152.9 -241.6 151.6 C-243.6 150.7 -245.5 149.8 -247.5 148.8 C-250.4 147.4 -253.4 146 -256.3 144.6 C-257.2 144.1 -258.1 143.7 -259 143.3 C-267.1 139.4 -275.3 133.9 -278.9 125.4 C-280.5 119.7 -280.3 114.3 -277.8 108.9 C-272.1 99.2 -261.6 94.1 -251.8 89.2 C-250.9 88.8 -250 88.3 -249 87.9 C-246.1 86.4 -243.2 85 -240.3 83.6 C-238.3 82.6 -236.3 81.6 -234.3 80.6 C-223.6 75.2 -212.8 69.9 -202 64.8 C-195.8 61.9 -189.6 58.8 -183.5 55.7 C-176.2 52.1 -169 48.5 -161.7 45.1 C-152.5 40.7 -143.4 36.3 -134.3 31.9 C-133.7 31.6 -133 31.3 -132.3 30.9 C-123.3 26.6 -114.3 22.2 -105.3 17.8 C-70.3 0.6 -70.3 0.6 -56 -6 C-55 -6.5 -54 -6.9 -53 -7.4 C-32.4 -16.8 -19.1 -9.2 0 0 Z M-42.4 11 C-43.1 11.3 -43.8 11.6 -44.5 11.9 C-51.4 15.1 -58.1 18.5 -64.9 21.9 C-71.4 25.2 -77.9 28.4 -84.5 31.6 C-93.2 35.7 -101.8 39.8 -110.3 43.9 C-110.9 44.2 -111.5 44.5 -112.2 44.8 C-119.4 48.3 -126.6 51.8 -133.8 55.3 C-134.5 55.6 -135.2 56 -136 56.3 C-138.8 57.7 -141.6 59.1 -144.5 60.5 C-152.7 64.5 -161 68.4 -169.2 72.4 C-182.8 78.8 -196.2 85.4 -209.7 92 C-218.2 96.2 -226.7 100.4 -235.3 104.5 C-235.6 104.6 -235.6 104.6 -237.2 105.4 C-240.1 106.8 -243 108.1 -245.9 109.5 C-246.9 109.9 -247.8 110.4 -248.9 110.9 C-249.7 111.3 -250.5 111.7 -251.4 112.1 C-253.5 113.3 -255 114.2 -256.5 116.2 C-256.4 118.3 -256.4 118.3 -255.5 120.2 C-254 121.5 -254 121.5 -252.1 122.6 C-251.4 123 -250.7 123.5 -249.9 123.9 C-245.3 126.5 -240.5 128.9 -235.7 131.2 C-234.6 131.8 -233.4 132.4 -232.3 133 C-223.2 137.5 -214 141.8 -204.8 146 C-194.7 150.7 -184.6 155.4 -174.6 160.2 C-163.2 165.6 -151.8 171 -140.3 176.3 C-129.5 181.3 -118.8 186.4 -108 191.5 C-107.2 191.8 -106.5 192.2 -105.7 192.6 C-97.8 196.3 -89.8 200.1 -81.8 203.9 C-78.4 205.5 -75 207.1 -71.6 208.8 C-70 209.5 -68.4 210.3 -66.8 211.1 C-59 214.8 -51.2 218.5 -43.3 221.8 C-42.2 222.3 -41 222.8 -39.8 223.3 C-33.3 225.1 -28 222.9 -22 220.1 C-21.3 219.8 -20.6 219.5 -19.9 219.2 C-12.5 215.9 -5.3 212.4 2 208.8 C3.4 208.1 4.8 207.4 6.3 206.7 C9.2 205.3 12.2 203.8 15.2 202.4 C19.3 200.4 23.4 198.4 27.6 196.4 C28.2 196 28.9 195.7 29.5 195.4 C30.9 194.7 32.2 194.1 33.5 193.5 C43.3 188.7 53 184 62.7 179.3 C79.3 171.1 96 163 112.8 155.3 C119.1 152.4 125.3 149.4 131.5 146.2 C131.5 145.6 131.5 144.9 131.5 144.2 C118.6 140.8 105.6 138.1 92.4 135.6 C90.2 135.1 88.1 134.7 85.9 134.2 C80.1 133.1 74.4 132 68.7 130.8 C62.8 129.7 57 128.5 51.2 127.3 C41.8 125.5 32.4 123.6 22.9 121.7 C22.1 121.6 21.3 121.4 20.4 121.2 C19.6 121.1 18.8 120.9 18 120.7 C16.3 120.4 14.5 120 12.8 119.7 C11.9 119.5 11 119.3 10.1 119.2 C9.3 119 8.5 118.8 7.7 118.7 C4.4 118 1.9 117.6 -1.5 118.2 C-3.2 120 -4.5 122 -5.9 124 C-11.2 131.5 -18.7 136 -27.5 138.2 C-40.2 140.1 -50.8 137.5 -61.3 130.1 C-68.3 124.3 -72.8 116 -73.8 107 C-74.1 96.4 -71.8 86.7 -64.2 78.8 C-56.4 72 -45.8 67.3 -35.4 66.8 C-23.2 68.2 -12.7 71.8 -4.6 81.4 C-1.4 85.8 0.4 90.6 2.1 95.7 C4.1 99.2 5.7 99.2 9.5 100.2 C12.4 100.9 15.2 101.5 18.1 102.1 C19 102.2 19.8 102.4 20.7 102.6 C22.5 103 24.3 103.3 26.2 103.7 C29.1 104.3 32 104.9 35 105.5 C42.3 107 49.7 108.5 57 109.9 C100.8 118.8 100.8 118.8 122.3 123.5 C124 123.9 125.8 124.3 127.5 124.7 C143.1 128.1 143.1 128.1 150.5 131.4 C154.5 133 156.8 133.5 160.9 132.1 C162.2 131.5 163.5 130.9 164.8 130.2 C165.4 129.9 166.1 129.6 166.8 129.3 C168.2 128.6 169.7 127.9 171.1 127.2 C173.3 126.1 175.5 125.1 177.7 124.1 C179.1 123.4 180.4 122.7 181.8 122.1 C182.5 121.7 183.1 121.4 183.8 121.1 C186.9 119.6 188.3 118.8 189.4 115.5 C189.5 115.1 189.5 115.1 189.5 113.2 C183 109 176.3 105.6 169.3 102.2 C168.1 101.7 166.9 101.1 165.7 100.5 C156.4 96.1 147.1 91.8 137.8 87.5 C127.7 82.8 117.6 78 107.5 73.2 C93 66.4 78.5 59.6 63.9 52.8 C58.7 50.4 53.4 47.9 48.2 45.5 C36.1 39.9 24.1 34.3 12.1 28.7 C10.3 27.9 8.6 27.1 6.8 26.2 C1.1 23.6 -4.7 20.9 -10.5 18.2 C-11.4 17.8 -12.3 17.4 -13.2 17 C-15.9 15.7 -18.7 14.5 -21.4 13.2 C-21.8 13 -21.8 13 -23.9 12.1 C-31.1 8.8 -35.1 7.5 -42.4 11 Z M-51.5 97.2 C-53.2 100.7 -52.9 104.4 -52.5 108.2 C-50.1 113.1 -47.3 115.8 -42.5 118.2 C-36.4 119.8 -31.6 119.7 -26.2 116.5 C-23.1 114.2 -21.2 111.6 -19.5 108.2 C-19 103 -18.9 98.6 -21 93.8 C-25.2 89.5 -28.4 87.5 -34.4 86.7 C-42.1 87.2 -47.1 91.2 -51.5 97.2 Z M-169.5 186.2 C-169.6 200.9 -169.7 215.6 -169.9 230.3 C-169.9 237.2 -170 244 -170 250.8 C-170.1 257.4 -170.2 264 -170.2 270.6 C-170.2 273.1 -170.3 275.6 -170.3 278.1 C-170.4 285 -170.4 292 -170.4 298.9 C-170.5 302.3 -170.5 305.8 -170.6 309.2 C-170.6 311.4 -170.6 313.6 -170.6 315.9 C-170.6 316.9 -170.6 317.9 -170.7 318.9 C-170.7 329.3 -169.6 338.3 -162.5 346.2 C-128.7 377 -60.9 378.8 -18.5 377.2 C14.2 375.4 62.3 370.7 87 346.1 C92 340.1 93.8 334.5 94.2 326.8 C94.2 326.4 94.2 326.4 94.3 324.4 C94.8 312.5 94.5 300.5 94.4 288.6 C94.4 285 94.4 281.5 94.3 278 C94.3 271.3 94.2 264.6 94.2 257.9 C94.1 250.3 94 242.7 94 235.1 C93.8 219.5 93.7 203.9 93.5 188.2 C90.1 188.9 87.2 189.7 84 191.3 C83.2 191.7 82.3 192.1 81.4 192.6 C80.5 193 79.6 193.5 78.6 194 C77.7 194.4 76.7 194.9 75.7 195.4 C72.6 196.9 69.4 198.5 66.3 200.1 C63 201.7 59.8 203.3 56.5 204.9 C54.4 205.9 52.3 206.9 50.2 208 C41.9 212.1 33.7 216.1 25.4 220 C19.6 222.8 13.8 225.6 8.1 228.4 C5.8 229.5 3.6 230.6 1.4 231.7 C-0.1 232.4 -1.5 233.1 -3 233.8 C-31.5 247.9 -31.5 247.9 -44.8 243.5 C-50.9 241 -56.8 238.1 -62.6 235.2 C-66.9 233 -71.3 230.9 -75.6 228.9 C-76.5 228.5 -77.3 228.1 -78.1 227.7 C-79.8 226.9 -81.5 226.1 -83.2 225.3 C-87.5 223.3 -91.8 221.2 -96.1 219.2 C-111.5 211.8 -127 204.5 -142.5 197.2 C-142.8 197.1 -142.8 197.1 -144.4 196.3 C-148.4 194.4 -152.5 192.6 -156.5 190.7 C-157.5 190.2 -158.5 189.8 -159.5 189.3 C-160 189.1 -160 189.1 -162.2 188.1 C-163 187.7 -163.7 187.4 -164.5 187 C-166.5 186.2 -166.5 186.2 -169.5 186.2 Z " transform="translate(288.47259521484375,21.753021240234375)"/>
  </g>
</svg>
