<svg xmlns="http://www.w3.org/2000/svg" viewBox="0 0 512 512" width="512" height="512">
  <title>training</title>
  <g transform="translate(17.2 22.3) scale(0.93279)" fill="currentColor">
    <path d="M0 0 C0.7 -0 1.4 -0 2 -0 C4.3 -0 6.6 -0 8.8 -0 C10.5 -0 12.1 -0 13.8 -0 C18.3 -0 22.8 -0 27.3 -0 C32.2 -0 37 -0 41.9 -0.1 C51.4 -0.1 61 -0.1 70.5 -0.1 C78.2 -0.1 86 -0.1 93.7 -0.1 C115.7 -0.1 137.6 -0.1 159.6 -0.1 C160.2 -0.1 160.2 -0.1 163.2 -0.1 C164.4 -0.1 165.5 -0.1 166.8 -0.1 C186 -0.1 205.2 -0.1 224.4 -0.2 C244.1 -0.2 263.8 -0.2 283.6 -0.2 C294.6 -0.2 305.7 -0.2 316.8 -0.2 C326.2 -0.2 335.6 -0.2 345.1 -0.2 C349.9 -0.2 354.7 -0.2 359.5 -0.2 C363.9 -0.3 368.3 -0.3 372.7 -0.2 C374.3 -0.2 375.9 -0.2 377.5 -0.3 C392.4 -0.4 392.4 -0.4 399.2 4.3 C403.7 9.1 404.6 12.2 404.5 18.7 C404.1 22.5 402.8 24.5 400.2 27.3 C395.1 30.7 391.2 31.8 385 31.8 C384.6 31.8 384.6 31.8 382.6 31.8 C380 31.9 377.4 31.9 374.8 31.9 C373 31.9 371.2 31.9 369.4 31.9 C364.6 32 359.9 32 355.2 32 C349.5 32 343.8 32.1 338.1 32.1 C329.5 32.2 320.8 32.2 312.2 32.3 C312.2 48.4 312.2 64.6 312.2 81.3 C318.7 81.8 324.4 82.4 330.8 82.3 C364.1 82.1 389.9 85.7 414.9 109.5 C432 127.2 440.4 148.6 440.3 173.1 C440.3 174 440.3 175 440.3 176 C440.3 179.2 440.3 182.4 440.3 185.6 C440.3 187.9 440.3 190.2 440.3 192.5 C440.4 198.8 440.4 205 440.4 211.3 C440.4 215.2 440.4 219.1 440.4 223 C440.4 235.9 440.4 248.9 440.4 261.8 C440.4 262.2 440.4 262.2 440.4 263.9 C440.4 264.6 440.4 265.3 440.4 266 C440.4 277.3 440.4 288.6 440.4 299.9 C440.4 311.5 440.4 323.2 440.4 334.8 C440.4 341.3 440.4 347.8 440.4 354.3 C440.4 360.4 440.4 366.6 440.4 372.7 C440.4 375 440.4 377.2 440.4 379.4 C440.5 406.7 436.6 429.8 418.2 451.3 C417.7 451.9 417.2 452.6 416.6 453.3 C404.4 468.5 384.6 480.1 365.3 482.8 C359.1 483.5 352.9 483.4 346.6 483.4 C345.2 483.4 343.9 483.4 342.5 483.4 C338.8 483.4 335 483.4 331.3 483.4 C327.2 483.4 323.2 483.4 319.2 483.4 C311.3 483.4 303.4 483.4 295.4 483.4 C289 483.4 282.6 483.4 276.2 483.4 C257.9 483.4 239.7 483.4 221.4 483.4 C220.9 483.4 220.9 483.4 218.4 483.4 C217.5 483.4 216.5 483.4 215.5 483.4 C199.5 483.4 183.6 483.5 167.6 483.5 C151.2 483.5 134.8 483.5 118.5 483.5 C109.3 483.5 100.1 483.5 90.9 483.5 C83.1 483.5 75.2 483.5 67.4 483.5 C63.4 483.5 59.4 483.5 55.4 483.5 C51.8 483.5 48.1 483.5 44.4 483.5 C42.5 483.5 40.6 483.5 38.6 483.5 C12.4 483.4 -9.8 474.7 -29 456.5 C-44.6 440.3 -54 419.8 -54 397.3 C-54 396.3 -54 395.3 -54 394.2 C-54 390.9 -54 387.5 -54 384.2 C-54 381.7 -54 379.3 -54 376.9 C-54 369.7 -54 362.5 -54 355.3 C-54 351.8 -54.1 348.4 -54.1 345 C-54.1 333.7 -54.1 322.3 -54.1 311 C-54.1 308 -54.1 305.1 -54.1 302.2 C-54.1 301.4 -54.1 300.7 -54.1 299.9 C-54.1 288.1 -54.1 276.3 -54.2 264.5 C-54.2 252.3 -54.2 240.1 -54.2 228 C-54.2 221.1 -54.2 214.3 -54.3 207.5 C-54.3 201.1 -54.3 194.7 -54.3 188.2 C-54.3 185.9 -54.3 183.5 -54.3 181.2 C-54.4 165.4 -53.8 150.3 -46.1 136.1 C-45.8 135.4 -45.4 134.8 -45.1 134.1 C-33.1 111.7 -14.3 93.7 10.2 85.9 C20.7 82.9 30.9 82.1 41.8 82.2 C42.2 82.2 42.2 82.2 44.4 82.2 C47.5 82.2 50.7 82.2 53.8 82.2 C60.9 82.2 67.9 82.2 75.2 82.3 C75.2 65.4 75.2 48.6 75.2 31.3 C69.3 31.3 63.3 31.3 57.2 31.4 C53.5 31.4 49.7 31.4 46 31.4 C40 31.4 34.1 31.4 28.1 31.5 C23.3 31.5 18.5 31.5 13.7 31.5 C11.9 31.5 10 31.6 8.2 31.6 C5.6 31.6 3.1 31.6 0.5 31.6 C-0.3 31.6 -1 31.6 -1.8 31.6 C-8.1 31.6 -11.9 29.8 -16.7 25.8 C-19.6 22 -19.6 17.9 -19.4 13.2 C-18.4 8.3 -15.7 5.2 -11.8 2.3 C-7.8 0.3 -4.5 0 0 0 Z M106.2 31.3 C106.2 48.1 106.2 64.9 106.2 82.3 C110.4 83 113.7 83.4 117.8 83.4 C118.9 83.4 120.1 83.4 121.2 83.4 C121.8 83.4 121.8 83.4 124.9 83.4 C125.5 83.4 125.5 83.4 128.8 83.4 C132.4 83.4 136 83.4 139.7 83.4 C141.9 83.4 144.2 83.4 146.5 83.4 C191.4 83.4 236.3 82.8 281.2 82.3 C281.2 65.4 281.2 48.6 281.2 31.3 C223.4 31.3 165.7 31.3 106.2 31.3 Z M-8.8 135.3 C-17.6 146.4 -22.4 158.2 -22.4 172.5 C-22.4 173.5 -22.5 174.6 -22.5 175.7 C-22.5 179.4 -22.5 183 -22.6 186.6 C-22.6 188.6 -22.6 190.6 -22.6 192.6 C-22.7 202.5 -22.8 212.4 -22.8 222.3 C-22.8 223.1 -22.8 224 -22.8 224.9 C-22.9 249.2 -22.8 273.5 -22.7 297.8 C-22.7 299.8 -22.7 301.9 -22.7 303.9 C-22.7 304.9 -22.7 305.9 -22.7 307 C-22.6 315.3 -22.6 323.7 -22.6 332 C-22.6 340.2 -22.5 348.4 -22.5 356.6 C-22.5 361.4 -22.5 366.2 -22.4 371 C-22.4 375.5 -22.4 380 -22.4 384.5 C-22.4 386.2 -22.4 387.8 -22.4 389.4 C-22.4 408.1 -17.3 423.2 -4.3 436.8 C10.6 451 28.7 452.4 48.3 452.3 C50.8 452.3 53.4 452.3 55.9 452.3 C59.8 452.3 63.7 452.3 67.6 452.3 C74.7 452.3 81.8 452.3 88.8 452.2 C89.5 452.2 89.5 452.2 92.8 452.2 C94.8 452.2 96.8 452.2 98.8 452.2 C128.3 452.2 157.8 452.2 187.3 452.1 C191.5 452.1 195.7 452.1 199.9 452.1 C200.8 452.1 201.6 452.1 202.5 452.1 C216.1 452.1 229.8 452.1 243.4 452.1 C257.5 452.1 271.6 452 285.8 452 C294.4 452 303.1 452 311.7 452 C317.6 452 323.6 452 329.5 451.9 C332.9 451.9 336.3 451.9 339.7 451.9 C361.4 452 376.1 449.8 392.4 434.4 C405.8 420.3 409.4 403.3 409.3 384.5 C409.3 383.6 409.3 382.7 409.3 381.7 C409.3 378.6 409.3 375.6 409.3 372.5 C409.3 370.3 409.3 368 409.3 365.8 C409.4 359.8 409.4 353.8 409.4 347.8 C409.4 344 409.4 340.3 409.4 336.5 C409.4 324.1 409.4 311.6 409.4 299.2 C409.4 298.5 409.4 297.9 409.4 297.2 C409.4 296.5 409.4 295.8 409.4 295.1 C409.4 284.3 409.4 273.4 409.4 262.6 C409.4 251.4 409.4 240.2 409.4 229.1 C409.4 222.8 409.4 216.5 409.4 210.3 C409.4 204.4 409.4 198.5 409.4 192.6 C409.4 190.4 409.4 188.3 409.4 186.1 C409.5 164.4 407.4 146.7 392.2 130.3 C379.8 118.4 367.2 114.9 350.4 115 C349.1 115 347.7 115 346.3 115 C342.4 115 338.6 115 334.8 115 C330.7 115 326.5 115 322.4 114.9 C314.3 114.9 306.2 114.9 298.2 114.9 C291.6 114.9 285 114.9 278.4 114.9 C259.8 114.9 241.2 114.9 222.5 114.9 C221.5 114.9 220.5 114.9 219.5 114.9 C218.5 114.9 217.5 114.9 216.4 114.9 C200.1 114.9 183.8 114.9 167.5 114.8 C150.8 114.8 134 114.8 117.3 114.8 C107.9 114.8 98.5 114.8 89.1 114.8 C81.1 114.8 73.1 114.8 65.1 114.8 C61 114.8 56.9 114.8 52.9 114.8 C49.1 114.7 45.4 114.7 41.6 114.8 C39.7 114.8 37.7 114.7 35.7 114.7 C17.9 114.9 3.2 122.2 -8.8 135.3 Z " transform="translate(62.80860614776611,8.742731094360352)"/>
    <path d="M0 0 C3.6 2 4.7 3.2 6.1 7.1 C7.1 11.4 7.3 15.3 7.3 19.7 C7.3 20.5 7.3 21.3 7.3 22.2 C7.3 25 7.3 27.7 7.3 30.5 C7.3 32.4 7.3 34.4 7.3 36.3 C7.3 40.4 7.3 44.5 7.3 48.6 C7.2 53.8 7.3 58.9 7.3 64.1 C7.4 114.2 6.3 163.9 -29.2 203.1 C-29.7 203.6 -30.1 204.1 -30.6 204.7 C-34.9 209.2 -39.3 213.6 -45.6 214.5 C-50.1 213.8 -52.6 212.4 -55.8 209.2 C-57.5 206.1 -57.6 204.5 -57 201 C-54.4 196.5 -50.8 192.7 -47.2 188.9 C-25.1 164.1 -18 132.6 -17.8 100 C-17.8 97.9 -17.7 95.7 -17.7 93.6 C-17.7 92.5 -17.7 91.4 -17.7 90.3 C-17.6 84.3 -17.5 78.4 -17.4 72.5 C-17.3 65 -17.2 57.5 -17.2 50 C-17.1 43.9 -17 37.8 -16.9 31.7 C-16.9 29.4 -16.9 27.1 -16.9 24.8 C-16.8 21.6 -16.8 18.3 -16.7 15.1 C-16.7 14.6 -16.7 14.6 -16.7 12.2 C-16.6 7.6 -16.5 5.6 -13.6 1.9 C-8.9 -1.6 -5.6 -1.2 0 0 Z " transform="translate(271,189)"/>
    <path d="M0 0 C1.4 -0 2.8 -0 4.2 -0.1 C18.2 -0.3 18.2 -0.3 23.9 3.2 C26.6 7.3 26.4 10.5 25.9 15.2 C24.2 19.1 22.7 20.6 18.9 22.2 C16.7 22.5 16.7 22.5 14.4 22.6 C13.5 22.6 12.7 22.7 11.8 22.7 C10.9 22.7 10.1 22.8 9.2 22.8 C7.4 22.9 5.7 22.9 4 23 C3.2 23 2.4 23 1.7 23.1 C-0.1 23.2 -0.1 23.2 -1.1 24.2 C-1.2 25.8 -1.3 27.4 -1.3 28.9 C-1.3 29.9 -1.3 30.9 -1.3 32 C-1.2 33.1 -1.2 34.1 -1.2 35.3 C-1.2 36.4 -1.2 37.5 -1.2 38.6 C-1.2 42.2 -1.2 45.7 -1.2 49.3 C-1.2 51.7 -1.2 54.1 -1.2 56.5 C-1.2 62.4 -1.2 68.3 -1.1 74.2 C0.2 74.2 1.5 74.3 2.8 74.3 C4.6 74.3 6.3 74.4 8.1 74.4 C8.5 74.4 8.5 74.4 10.7 74.4 C15.2 74.6 17.3 74.7 20.9 77.7 C24.1 81.8 24 84 23.4 89 C22.7 92.1 21.4 93.4 18.9 95.2 C12.5 97.3 5.5 96.2 -1.1 96.2 C-1.1 118 -1.1 139.8 -1.1 162.2 C6.1 162.6 13.4 162.9 20.9 163.2 C28.2 166.9 28.2 166.9 29.9 171.2 C30.1 175.5 29.3 178.5 27.1 182.1 C22.8 186.2 19.6 186.5 13.8 186.5 C13.4 186.5 13.4 186.5 11.7 186.5 C9.3 186.5 7 186.5 4.7 186.5 C3.1 186.5 1.4 186.5 -0.2 186.5 C-3.6 186.5 -7 186.5 -10.4 186.5 C-14.7 186.5 -19 186.5 -23.4 186.5 C-26.7 186.5 -30.1 186.5 -33.4 186.5 C-35 186.5 -36.6 186.5 -38.2 186.5 C-40.5 186.5 -42.7 186.5 -44.9 186.5 C-46.2 186.5 -47.5 186.5 -48.8 186.5 C-53.3 186.1 -56.1 185.2 -59.4 182.2 C-61.8 178.1 -61.9 174.8 -61.1 170.2 C-59.7 167.1 -58.5 165.8 -55.3 164.5 C-46.4 162.3 -35.9 162.7 -27.1 162.2 C-27.1 140.8 -27.1 119.3 -27.1 97.2 C-31.1 96.9 -35.1 96.6 -39.1 96.2 C-42.5 95 -44.3 94.3 -46.5 91.5 C-47.7 87.1 -47.7 83.6 -45.9 79.4 C-43.2 76.1 -41.1 75.4 -36.9 74.8 C-36.3 74.8 -36.3 74.8 -33.4 74.6 C-32.2 74.5 -31 74.5 -29.8 74.4 C-28.9 74.3 -28.1 74.3 -27.1 74.2 C-27.1 67.1 -27.1 60 -27.1 52.9 C-27.1 50.5 -27.1 48.1 -27.1 45.7 C-27 42.2 -27 38.7 -27 35.3 C-27 34.2 -27 33.1 -27 32 C-27 31 -27 30 -27 28.9 C-27 28 -27 27.2 -27 26.2 C-27.1 24.2 -27.1 24.2 -28.1 23.2 C-31.6 23 -35.1 22.9 -38.6 22.8 C-42.6 22.2 -44.3 21 -47.1 18.2 C-48.9 14.8 -48.6 11 -48.1 7.2 C-46.3 4.4 -45.2 2.7 -42.1 1.2 C-40.5 1.1 -38.8 1 -37.2 0.9 C-36.1 0.9 -35.1 0.8 -34 0.8 C-33.4 0.8 -33.4 0.8 -30.5 0.7 C-29.3 0.6 -28.1 0.6 -26.9 0.5 C-18 0.3 -9 0.1 0 0 Z " transform="translate(333.13690185546875,204.76882934570313)"/>
    <path d="M0 0 C1.2 -0 2.4 -0 3.6 -0 C4.9 -0.1 6.2 -0.1 7.6 -0.1 C8.9 -0.1 10.3 -0.1 11.6 -0.1 C14.5 -0.1 17.3 -0.1 20.1 -0.1 C23.7 -0.1 27.3 -0.2 31 -0.2 C33.7 -0.2 36.5 -0.2 39.3 -0.2 C41.3 -0.3 43.3 -0.3 45.3 -0.3 C55.3 -0.3 55.3 -0.3 59 2.7 C62 6.3 61.9 8.4 61.6 12.9 C61 16.2 59.6 18.1 57.2 20.3 C55 21.4 53.5 21.6 51.1 21.9 C50.4 22 49.7 22 48.9 22.1 C45 22.4 41.1 22.3 37.2 22.3 C37.2 39.1 37.2 56 37.2 73.3 C41.1 73.3 45.1 73.3 49.2 73.3 C55.3 75.8 55.3 75.8 57.2 79.3 C57.7 84.5 57 87.9 54.2 92.3 C50.2 94.3 50.2 94.3 38.2 95.3 C37.8 111.5 37.5 127.6 37.2 144.3 C39.1 143.6 39.1 143.6 49.2 140.3 C53.6 139.7 53.6 139.7 57.2 140.3 C60.9 143.3 60.9 143.3 62.2 146.3 C62.5 150.5 62.3 152.6 60 156.1 C49.4 166.7 31.7 171.4 18 176.8 C17.4 177.1 16.7 177.3 16 177.6 C1.6 183.3 1.6 183.3 -5.8 183.3 C-8.2 182.2 -8.2 182.2 -9.8 180.5 C-10.4 180 -11 179.4 -11.5 178.8 C-14.1 175.9 -14.1 173.3 -14.3 169.5 C-13.8 167.3 -13.8 167.3 -9.8 162.3 C-6.2 160.8 -6.2 160.8 12.2 153.3 C12.2 134.5 12.2 115.7 12.2 96.3 C9.5 96 9.5 96 -3.8 94.3 C-9.6 89.7 -9.6 89.7 -10.2 84 C-9.8 80.3 -9.8 80.3 -4.8 74.3 C1.1 74 7 73.6 13.2 73.3 C13.2 56.5 13.2 39.6 13.2 22.3 C9.2 22.3 5.2 22.3 1.2 22.3 C-3.5 22.1 -5.2 21.9 -8.7 18.9 C-12.1 14.8 -12.2 12.5 -11.8 7.3 C-9.1 1.5 -6.3 0.1 0 0 Z " transform="translate(161.844970703125,205.693603515625)"/>
    <path d="M0 0 C2.8 1.8 4.5 3 6 6 C6.1 7.7 6.1 9.3 6.2 11 C6.2 12 6.2 13.1 6.2 14.1 C6.2 15.3 6.2 16.4 6.2 17.6 C6.2 18.8 6.2 20 6.2 21.2 C6.2 23.7 6.2 26.2 6.2 28.8 C6.2 32.5 6.3 36.3 6.3 40.1 C6.4 51.8 6.1 63.5 4.7 75.1 C4.6 76.1 4.5 77 4.4 78 C3.4 85.7 1.9 94.3 -3.9 99.7 C-7.3 101.1 -9.3 101.5 -13 101 C-16.8 99.3 -18.5 97.9 -20 94 C-20 91.7 -20 91.7 -19.7 89.3 C-19.6 88.4 -19.5 87.5 -19.4 86.6 C-18.9 83.6 -18.4 80.5 -17.9 77.4 C-15.3 62.5 -15.5 47.6 -15.5 32.5 C-15.5 28.9 -15.4 25.4 -15.4 21.8 C-15.4 20.7 -15.4 19.6 -15.4 18.5 C-15.3 11.8 -14.9 6.3 -10.3 1.1 C-6.9 -0.5 -3.7 -0.7 0 0 Z " transform="translate(240,227)"/>
  </g>
</svg>
